<?xml version="1.0"?>

<svg version="1.0" xmlns="http://www.w3.org/2000/svg" width="2000.000000pt" height="2000.000000pt" viewBox="0 0 2000.000000 2000.000000" preserveAspectRatio="xMidYMid meet">

<g transform="translate(0.000000,2000.000000) scale(0.100000,-0.100000)" fill="#000000" stroke="none">
<path d="M16615 17081 c-234 -49 -429 -150 -657 -340 -209 -176 -401 -398&#xA;-593 -686 -364 -547 -649 -1179 -885 -1964 -53 -177 -57 -186 -80 -185 -21 0&#xA;-243 40 -417 75 l-53 10 0 122 c0 147 -12 225 -50 335 -66 195 -221 379 -443&#xA;527 -163 108 -173 124 -227 331 -140 540 -339 873 -650 1084 -134 91 -298 145&#xA;-481 159 -198 15 -325 -6 -520 -82 l-111 -45 -76 53 c-174 118 -313 185 -492&#xA;237 -91 26 -127 30 -265 35 -125 4 -179 2 -248 -11 -203 -39 -386 -130 -559&#xA;-278 l-70 -60 -86 40 c-174 81 -301 107 -493 99 -161 -6 -277 -35 -418 -103&#xA;-144 -69 -271 -170 -352 -279 -12 -16 -25 -34 -29 -38 -4 -4 -35 6 -71 22&#xA;-103 49 -207 71 -328 71 -127 0 -221 -22 -343 -78 -118 -55 -199 -111 -294&#xA;-206 -135 -136 -226 -299 -279 -500 -14 -50 -67 -347 -120 -660 -98 -584 -107&#xA;-624 -156 -654 -34 -21 -1176 -209 -1189 -195 -5 4 -43 116 -84 248 -229 721&#xA;-451 1231 -747 1713 -382 621 -788 1011 -1204 1155 -142 49 -219 60 -371 55&#xA;-112 -4 -141 -9 -224 -37 -233 -79 -413 -234 -584 -504 l-78 -123 -121 -2&#xA;c-271 -3 -437 -64 -591 -217 -107 -106 -185 -233 -265 -430 -70 -173 -146&#xA;-243 -284 -265 -187 -28 -279 -72 -382 -182 -80 -84 -122 -156 -178 -304 -169&#xA;-444 -215 -1082 -142 -1952 9 -96 14 -177 12 -179 -2 -1 -27 -7 -56 -13 -114&#xA;-21 -193 -88 -234 -197 -20 -53 -22 -75 -21 -273 1 -171 5 -238 22 -330 40&#xA;-217 116 -432 208 -581 88 -143 135 -174 265 -173 47 1 97 4 111 7 25 7 26 3&#xA;143 -311 235 -632 372 -924 576 -1229 141 -210 322 -409 479 -527 139 -105&#xA;297 -157 417 -137 69 11 175 51 243 91 l45 27 95 -92 c208 -200 448 -352 635&#xA;-401 206 -54 431 -4 599 133 32 26 64 52 70 56 7 5 63 -15 141 -51 257 -118&#xA;364 -145 560 -145 110 1 144 5 220 27 279 82 509 282 706 615 351 591 472&#xA;1646 329 2866 -11 94 -25 212 -31 263 -7 50 -10 94 -8 97 9 8 831 146 837 141&#xA;3 -3 11 -117 18 -253 25 -475 60 -746 135 -1045 90 -358 224 -685 404 -984 40&#xA;-66 78 -138 84 -160 8 -27 14 -518 22 -1564 12 -1699 6 -1577 79 -1612 60 -28&#xA;572 -108 1015 -157 696 -78 1489 -91 2145 -35 484 41 1166 152 1280 207 27 13&#xA;52 36 65 57 24 42 24 -2 6 1410 -7 525 -13 1079 -14 1230 -3 362 -22 325 293&#xA;550 507 362 868 699 1156 1080 148 195 238 365 319 602 46 134 115 398 136&#xA;521 10 63 13 68 33 63 11 -3 80 -15 151 -27 72 -12 131 -22 132 -23 1 -1 -9&#xA;-101 -22 -221 -134 -1226 -92 -1967 147 -2620 140 -382 372 -720 595 -868 173&#xA;-115 313 -159 508 -159 207 -1 357 42 581 165 l80 45 80 -50 c184 -115 313&#xA;-166 444 -175 201 -13 394 82 728 361 73 61 143 119 156 129 21 17 24 17 93&#xA;-17 185 -92 342 -98 508 -22 132 61 360 271 510 471 242 321 362 572 700 1466&#xA;l78 207 116 4 c143 5 192 25 253 101 83 106 184 348 232 560 42 182 59 482 35&#xA;612 -14 75 -49 145 -91 180 -18 16 -75 48 -127 73 l-93 44 6 57 c32 302 40&#xA;451 40 821 1 406 -5 499 -45 745 -38 236 -112 491 -179 625 -58 115 -162 224&#xA;-275 289 -69 40 -203 79 -308 90 -59 6 -94 14 -107 26 -11 10 -47 83 -81 164&#xA;-80 192 -131 289 -199 381 -85 114 -187 203 -294 256 -125 61 -208 77 -371 71&#xA;l-130 -5 -85 130 c-92 142 -221 287 -323 364 -195 147 -467 212 -692 165z&#xA;m-13155 -191 c152 -52 280 -130 435 -265 55 -48 102 -92 103 -97 4 -10 -24 -5&#xA;-116 23 -149 44 -283 31 -401 -39 -186 -109 -385 -483 -475 -892 -57 -257 -75&#xA;-445 -83 -860 -22 -1197 184 -2369 622 -3543 275 -738 530 -1199 864 -1566&#xA;182 -199 366 -322 531 -357 73 -16 206 -14 284 3 l29 6 -19 -32 c-71 -121&#xA;-263 -270 -407 -317 -125 -41 -280 -45 -407 -11 -125 33 -221 78 -369 172&#xA;l-123 78 -56 -55 c-161 -155 -305 -228 -453 -228 -98 0 -162 16 -264 65 -127&#xA;62 -252 159 -450 348 l-170 164 -68 -63 c-121 -112 -240 -148 -370 -110 -63&#xA;18 -216 115 -289 183 -55 53 -305 389 -399 538 -110 175 -277 531 -402 855&#xA;-378 982 -557 2010 -533 3057 8 391 34 572 132 927 52 187 88 261 166 338 102&#xA;102 242 148 446 148 l109 0 68 163 c95 230 177 399 229 471 89 125 217 218&#xA;346 251 88 23 240 16 333 -15 37 -12 70 -21 71 -19 2 2 32 56 66 119 190 350&#xA;351 500 612 570 103 28 313 23 408 -10z m13548 -9 c221 -74 383 -237 557 -560&#xA;l50 -93 60 6 c33 3 114 9 181 12 199 11 309 -29 442 -159 116 -115 192 -254&#xA;307 -569 l58 -158 121 0 c363 -1 520 -134 621 -524 94 -367 116 -537 122 -959&#xA;16 -1040 -162 -2009 -562 -3062 -221 -582 -394 -894 -664 -1200 -190 -215&#xA;-352 -317 -505 -316 -95 0 -184 44 -280 137 l-69 67 -33 -39 c-18 -22 -33 -42&#xA;-34 -45 0 -10 -311 -273 -412 -350 -313 -236 -565 -222 -819 44 l-78 82 -38&#xA;-23 c-163 -97 -380 -187 -523 -217 -252 -53 -470 -5 -609 134 -55 55 -127 172&#xA;-114 185 3 3 40 6 82 6 149 1 218 16 327 69 380 188 713 617 1047 1351 223&#xA;489 392 975 526 1510 228 906 345 1884 313 2593 -35 766 -160 1259 -394 1554&#xA;-67 85 -119 128 -208 171 -74 36 -77 37 -195 37 -110 0 -128 -3 -213 -33 -51&#xA;-18 -99 -32 -107 -30 -15 3 97 103 225 200 139 105 307 182 460 212 14 2 79 3&#xA;145 1 103 -2 134 -7 213 -34z m-6098 -454 c135 -40 271 -131 377 -253 l52 -60&#xA;-35 -110 c-38 -119 -74 -299 -98 -494 -34 -269 -148 -1426 -172 -1730 -8 -111&#xA;9 -225 53 -364 33 -102 36 -121 36 -231 0 -104 -3 -131 -27 -205 -64 -196&#xA;-159 -323 -293 -392 -110 -57 -194 -72 -308 -58 -65 8 -94 18 -164 58 -123 67&#xA;-117 78 39 74 85 -3 122 0 115 6 -5 6 -64 35 -130 65 -77 34 -121 60 -123 71&#xA;-3 16 5 16 98 10 l102 -7 -6 44 c-3 24 -10 161 -16 304 -13 322 -14 328 -43&#xA;322 -12 -3 -48 -9 -79 -12 -54 -7 -58 -6 -58 13 0 24 -1 24 165 58 88 17 166&#xA;27 240 28 167 2 192 -21 216 -200 7 -49 13 -174 13 -279 1 -181 0 -192 -23&#xA;-238 -13 -26 -42 -63 -65 -83 -35 -30 -37 -34 -14 -25 92 35 139 74 179 151&#xA;23 43 24 53 23 250 -1 326 -33 459 -125 510 -39 22 -58 25 -164 28 -66 2 -193&#xA;-3 -281 -12 -177 -17 -241 -20 -230 -9 4 4 94 42 199 84 217 87 217 79 2 100&#xA;-66 6 -122 13 -124 15 -10 9 -22 1059 -17 1454 7 498 15 613 49 680 31 63 69&#xA;84 214 118 69 17 130 35 136 41 8 8 -48 11 -196 11 -138 0 -207 4 -207 10 0&#xA;20 28 65 57 92 49 47 115 69 221 74 54 3 113 8 132 11 l35 6 -35 8 c-241 57&#xA;-446 7 -624 -153 l-60 -53 30 53 c38 70 127 163 184 192 84 44 136 49 425 46&#xA;211 -3 282 -7 325 -19z m5443 -167 c195 -73 341 -346 411 -770 33 -200 46&#xA;-386 45 -635 -1 -307 -12 -353 -27 -125 -35 499 -84 761 -198 1067 -74 198&#xA;-134 294 -214 342 -38 22 -57 26 -120 26 -93 0 -152 -27 -258 -115 -285 -241&#xA;-585 -750 -817 -1390 -52 -142 -258 -768 -271 -823 -3 -15 -10 -30 -16 -33&#xA;-12 -8 -148 26 -148 37 0 5 18 77 39 161 97 373 279 847 481 1247 176 350 316&#xA;556 510 752 264 267 401 327 583 259z m-12440 -10 c282 -108 639 -561 897&#xA;-1140 71 -159 181 -434 250 -625 84 -235 212 -634 206 -644 -12 -18 -166 -43&#xA;-166 -26 0 12 -166 542 -215 685 -159 462 -354 877 -543 1149 -146 210 -363&#xA;440 -464 491 -115 57 -229 33 -320 -69 -75 -83 -180 -303 -213 -445 -23 -99&#xA;-72 -430 -110 -746 -19 -162 -39 -308 -44 -325 -9 -30 -9 -30 -10 10 -4 156&#xA;48 859 75 1013 33 191 151 481 233 574 46 52 88 81 159 109 63 26 184 21 265&#xA;-11z m8265 -6 c310 -89 583 -362 698 -696 40 -117 70 -358 45 -358 -6 0 -45&#xA;11 -88 25 l-79 24 -104 267 c-93 237 -118 289 -136 271 -3 -2 4 -94 16 -202&#xA;11 -109 18 -200 17 -202 -2 -1 -25 22 -51 53 -123 142 -339 301 -484 355 -80&#xA;30 -96 33 -212 33 -69 1 -144 -3 -167 -7 l-43 -9 0 59 c0 85 31 143 127 235&#xA;51 49 73 76 59 73 -11 -3 -61 -14 -111 -25 l-90 -19 35 29 c60 50 168 102 244&#xA;116 92 17 217 8 324 -22z m-2779 -1 c93 -24 170 -72 263 -164 65 -65 88 -94&#xA;92 -120 4 -19 11 -178 16 -354 9 -303 38 -742 131 -2015 23 -319 38 -581 35&#xA;-615 -12 -121 -83 -213 -217 -280 -103 -52 -171 -69 -284 -68 -188 1 -285 53&#xA;-285 155 0 57 6 59 105 37 50 -11 97 -18 105 -16 8 1 -27 25 -77 52 -51 28&#xA;-93 56 -93 63 0 8 19 12 61 12 52 0 60 2 55 16 -16 42 -57 223 -81 354 -24&#xA;135 -28 147 -57 174 l-31 29 34 28 c52 44 148 89 205 95 75 9 146 -17 204 -75&#xA;55 -55 78 -103 126 -258 48 -154 53 -270 15 -348 -14 -27 -27 -54 -29 -60 -14&#xA;-30 49 44 71 84 43 78 60 171 54 286 -13 223 -103 403 -235 466 -125 61 -316&#xA;22 -512 -106 -39 -24 -70 -39 -70 -32 1 24 60 106 104 143 26 22 85 62 133 91&#xA;l87 52 -124 3 -124 3 -133 795 c-73 437 -137 825 -143 863 -11 64 -13 67 -40&#xA;67 -39 0 -80 17 -80 32 0 7 87 49 193 93 l192 80 -189 5 -189 5 -10 29 c-7 21&#xA;-6 30 4 36 7 5 131 57 276 117 231 95 259 108 226 111 -92 8 -312 -45 -476&#xA;-114 -44 -18 -83 -32 -85 -29 -9 9 79 113 126 150 165 128 441 183 651 128z&#xA;m-1311 -332 c88 -45 175 -168 231 -326 12 -33 96 -395 187 -805 129 -580 164&#xA;-756 161 -797 -5 -76 -43 -124 -128 -167 -88 -44 -163 -59 -261 -54 -66 4 -90&#xA;11 -155 44 -180 91 -327 292 -472 644 l-31 75 28 -31 c16 -16 60 -84 99 -150&#xA;130 -220 228 -326 360 -391 64 -32 85 -37 197 -46 69 -6 129 -8 132 -4 4 3 -5&#xA;20 -19 37 -14 16 -38 69 -53 118 -120 389 -131 428 -122 439 15 19 75 27 106&#xA;14 16 -7 36 -25 45 -40 21 -36 117 -312 128 -366 10 -51 -6 -125 -36 -170 -28&#xA;-40 -26 -41 20 -19 54 26 78 95 77 224 -1 220 -75 421 -173 471 -35 17 -55 20&#xA;-115 17 -61 -3 -79 -8 -116 -34 -23 -16 -60 -52 -80 -79 -21 -28 -41 -50 -45&#xA;-50 -3 0 -10 13 -14 29 -12 44 12 87 71 130 l52 37 -39 34 c-21 19 -41 34 -46&#xA;35 -22 1 -273 433 -302 521 -34 101 -17 191 48 262 30 32 29 32 -87 11 -48 -8&#xA;-91 -13 -93 -10 -9 9 76 80 140 116 34 20 97 51 139 69 54 23 75 37 71 47 -7&#xA;18 -9 18 -134 -5 -208 -38 -269 -69 -411 -210 -96 -93 -109 -91 -59 9 94 189&#xA;260 328 460 386 68 20 186 12 239 -15z m4057 -311 c216 -181 326 -292 364&#xA;-367 39 -78 65 -185 56 -232 -21 -109 -126 -202 -210 -187 -82 16 -513 296&#xA;-549 357 -49 83 -40 128 81 406 67 155 77 171 92 160 9 -6 84 -68 166 -137z&#xA;m-311 104 c12 -5 7 -18 -26 -72 -58 -95 -114 -217 -128 -283 -7 -32 -11 -93&#xA;-8 -141 3 -68 10 -97 36 -152 62 -132 217 -252 447 -346 98 -40 119 -44 190&#xA;-44 67 -1 88 4 130 26 103 54 152 139 180 310 8 50 16 93 19 95 2 2 33 -3 70&#xA;-11 113 -27 183 -69 369 -223 49 -41 141 -109 205 -152 125 -84 196 -151 233&#xA;-222 18 -35 23 -60 24 -124 0 -44 -4 -96 -9 -115 l-8 -35 38 50 39 50 9 -43&#xA;c10 -49 -16 -771 -40 -1097 -37 -503 -147 -870 -359 -1190 -187 -280 -384&#xA;-462 -800 -739 -498 -332 -953 -529 -1425 -621 -487 -94 -841 -79 -1095 48&#xA;-111 55 -240 163 -312 262 -29 39 -29 22 -4 -102 32 -152 113 -313 221 -436&#xA;22 -25 40 -48 40 -51 0 -13 -80 44 -140 100 -103 97 -110 100 -282 96 -526&#xA;-11 -926 115 -1281 404 -312 254 -528 590 -718 1118 -61 172 -63 190 -16 234&#xA;12 11 200 86 417 167 217 80 492 182 610 226 134 49 230 79 254 79 37 0 46 -7&#xA;145 -108 81 -82 123 -116 177 -145 127 -66 164 -71 473 -69 l273 1 -15 -22&#xA;c-157 -224 -234 -435 -243 -657 l-5 -125 36 93 c102 273 224 463 384 598 l75&#xA;62 58 -29 c111 -56 235 -91 338 -97 119 -5 194 8 290 54 150 71 293 204 462&#xA;428 49 66 92 125 96 132 5 9 84 17 271 28 146 9 266 14 269 12 2 -3 14 -44 26&#xA;-93 l22 -88 41 130 c23 72 44 140 48 153 4 14 13 22 23 20 13 -3 19 -21 25&#xA;-87 10 -105 45 -215 88 -283 l34 -53 2 40 c2 22 -5 128 -15 235 -17 186 -16&#xA;209 9 210 4 0 32 -51 62 -112 31 -62 76 -139 101 -170 64 -80 164 -160 269&#xA;-214 l90 -46 -43 58 c-89 123 -159 236 -181 292 -33 84 -37 199 -9 282 42 127&#xA;141 366 163 393 33 42 87 56 192 50 76 -4 99 -2 145 16 30 11 69 32 85 46 l30&#xA;24 -115 1 -115 1 89 30 c154 51 276 122 306 179 9 16 1 16 -97 -6 -278 -60&#xA;-416 -42 -678 87 -393 194 -676 506 -820 904 -53 145 -68 240 -62 385 9 258&#xA;97 399 249 400 31 0 63 -3 72 -6z m-318 -1220 c58 -119 104 -217 102 -219 -4&#xA;-4 -325 -75 -340 -75 -7 0 2 13 19 29 61 56 75 99 84 269 8 149 15 212 26 212&#xA;2 0 52 -97 109 -216z m-7030 -333 c23 -10 53 -34 67 -52 23 -32 67 -112 67&#xA;-124 0 -2 -29 15 -65 40 -77 52 -124 64 -160 41 -34 -23 -51 -59 -71 -157 -35&#xA;-174 -4 -631 67 -966 74 -348 213 -735 324 -903 82 -123 140 -155 199 -109 22&#xA;17 82 128 121 224 13 32 21 -48 13 -123 -12 -106 -67 -200 -140 -238 -41 -21&#xA;-114 -17 -166 9 -140 69 -332 351 -457 671 -125 320 -190 728 -164 1029 17&#xA;198 74 509 103 565 49 94 168 136 262 93z m11171 8 c48 -18 93 -70 140 -164&#xA;51 -101 54 -123 72 -498 21 -459 -50 -841 -224 -1204 -107 -224 -243 -415&#xA;-342 -481 -51 -33 -63 -37 -122 -37 -106 1 -181 53 -209 145 -17 53 -25 154&#xA;-17 197 l7 38 15 -40 c16 -40 61 -105 126 -180 l34 -39 72 63 c39 34 82 76 95&#xA;92 25 30 145 323 198 483 38 117 113 420 139 561 50 277 67 672 33 786 -13 42&#xA;-66 162 -79 177 -1 1 -49 -18 -106 -42 -59 -25 -108 -41 -113 -36 -12 12 33&#xA;86 77 128 56 54 140 75 204 51z m-4036 -24 c81 -29 108 -68 133 -189 42 -206&#xA;40 -338 -8 -457 -13 -33 -21 -59 -17 -59 13 0 60 55 70 82 6 15 20 128 32 250&#xA;11 123 23 229 25 236 5 18 154 -76 180 -115 19 -28 20 -38 12 -95 -22 -166&#xA;-88 -308 -193 -413 -146 -147 -341 -202 -459 -131 l-39 23 42 23 c22 13 41 27&#xA;41 32 0 15 -47 82 -89 127 l-41 44 42 -7 c24 -4 53 -9 66 -13 l22 -5 0 311 c0&#xA;171 -2 311 -5 311 -2 0 -35 -11 -71 -25 -74 -28 -89 -27 -47 3 105 73 216 98&#xA;304 67z m-4043 -153 c35 -19 436 -382 429 -389 -3 -2 -171 -20 -373 -39 -595&#xA;-55 -593 -55 -1947 -315 -719 -137 -788 -149 -892 -149 l-113 0 54 -140 c80&#xA;-209 87 -220 161 -239 36 -10 61 -7 178 19 1085 241 2043 400 2989 495 364 36&#xA;377 35 380 -40 l1 -39 -115 -13 c-63 -6 -307 -32 -541 -57 -234 -25 -511 -57&#xA;-615 -71 -383 -52 -1018 -166 -1924 -346 -385 -77 -408 -78 -468 -32 -44 33&#xA;-132 214 -161 328 -54 210 -55 453 -3 525 36 50 72 60 577 164 678 139 1296&#xA;242 1885 315 135 17 277 35 315 40 84 11 139 6 183 -17z m6736 -247 c527 -104&#xA;990 -201 1013 -214 72 -38 99 -139 90 -336 -8 -179 -50 -320 -135 -460 -87&#xA;-145 -102 -147 -472 -71 -681 141 -943 195 -945 198 -2 2 -5 14 -7 28 -3 22 2&#xA;25 52 37 51 12 68 10 260 -28 113 -22 342 -70 510 -106 343 -73 430 -82 477&#xA;-47 37 28 68 74 94 142 27 73 63 221 56 228 -3 4 -27 -1 -53 -10 -26 -9 -62&#xA;-16 -79 -16 -57 0 -1129 218 -1189 242 -15 6 -37 25 -47 42 -17 28 -19 53 -19&#xA;234 l0 202 31 0 c18 0 181 -29 363 -65z m-13940 -1062 c7 -31 86 -492 86 -499&#xA;0 -2 -36 -4 -80 -4 -91 0 -85 9 -69 -105 29 -209 131 -406 254 -491 61 -42 61&#xA;-52 -4 -74 -78 -25 -118 12 -207 190 -121 244 -175 528 -154 810 5 66 14 129&#xA;20 139 19 37 61 61 106 61 38 0 43 -3 48 -27z m19356 9 c54 -26 71 -72 77&#xA;-210 9 -197 -19 -384 -88 -600 -71 -217 -170 -382 -230 -382 -25 0 -89 34 -89&#xA;47 0 5 20 21 45 36 83 53 153 155 189 277 13 45 76 306 76 317 0 2 -38 3 -85&#xA;3 -47 0 -85 3 -85 7 0 3 20 120 45 260 25 139 45 255 45 258 0 12 67 3 100&#xA;-13z m-14176 -154 c6 -29 51 -467 72 -698 21 -242 30 -815 15 -1005 -33 -414&#xA;-117 -748 -242 -959 -136 -229 -217 -292 -374 -290 -97 1 -155 22 -271 100&#xA;-185 122 -402 408 -566 744 -161 330 -172 400 -22 137 118 -206 195 -323 291&#xA;-442 103 -128 311 -331 391 -383 128 -83 255 -71 351 33 91 98 192 359 236&#xA;605 88 503 83 992 -19 1865 -18 154 -32 281 -31 283 3 4 127 30 147 31 11 1&#xA;20 -8 22 -21z m9009 2 l58 -12 -6 -41 c-7 -56 -72 -728 -85 -887 -39 -477 -30&#xA;-897 26 -1200 99 -538 282 -778 531 -694 73 25 174 97 249 177 146 157 489&#xA;657 593 865 47 94 53 101 71 90 19 -12 19 -13 1 -43 -10 -16 -74 -133 -141&#xA;-260 -242 -452 -329 -583 -491 -741 -156 -152 -263 -209 -394 -208 -108 1&#xA;-174 31 -261 118 -55 56 -82 95 -127 183 -247 482 -302 1322 -162 2433 32 249&#xA;31 243 58 237 12 -3 48 -11 80 -17z m-2920 -2397 c3 -32 4 -634 3 -1338 -3&#xA;-1405 1 -1318 -64 -1361 -69 -47 -497 -121 -897 -156 -198 -17 -1122 -17&#xA;-1375 0 -454 31 -608 42 -649 48 l-44 6 7 1270 c4 743 11 1291 17 1321 14 76&#xA;39 97 113 97 62 0 232 -23 299 -41 20 -5 44 -21 53 -34 11 -17 39 -228 104&#xA;-787 134 -1158 153 -1318 162 -1318 4 0 8 28 8 63 0 34 9 469 20 967 11 498&#xA;20 940 20 983 l0 77 160 0 160 0 31 -28 c31 -28 33 -32 41 -138 4 -60 15 -246&#xA;23 -414 31 -614 36 -680 57 -680 17 0 18 26 18 625 l0 625 53 0 c155 1 544 21&#xA;678 35 315 33 601 94 843 179 71 25 131 48 134 51 14 13 20 1 25 -52z"></path>
<path d="M3105 16806 c-245 -57 -434 -258 -585 -622 -85 -207 -146 -448 -189&#xA;-749 -16 -111 -71 -596 -71 -627 0 -4 21 15 46 42 59 63 128 107 180 116 52 8&#xA;141 -17 207 -57 26 -16 51 -29 55 -29 5 0 23 114 40 253 72 568 132 819 257&#xA;1067 145 288 284 422 494 476 39 10 71 21 71 25 0 13 -98 70 -157 91 -74 27&#xA;-259 34 -348 14z"></path>
<path d="M2027 16060 c-20 -5 -60 -21 -88 -35 -169 -86 -300 -332 -391 -735&#xA;-26 -120 -108 -584 -108 -617 0 -7 34 12 75 42 82 61 138 85 194 85 80 -1 170&#xA;-71 190 -147 5 -21 12 -189 15 -373 10 -556 53 -1000 152 -1550 99 -549 262&#xA;-1181 454 -1757 40 -121 70 -228 70 -251 0 -50 -34 -93 -99 -127 -130 -65&#xA;-256 -72 -362 -17 -56 29 -59 29 -59 10 0 -45 324 -608 468 -811 139 -197 342&#xA;-418 479 -521 94 -71 251 -158 333 -186 138 -47 287 -2 417 126 l65 64 -57 62&#xA;c-445 487 -601 687 -774 988 -245 427 -382 807 -576 1602 -244 1003 -338 1674&#xA;-339 2413 0 605 56 1008 205 1463 28 84 49 165 47 179 -3 31 -50 67 -107 83&#xA;-53 16 -160 21 -204 10z"></path>
<path d="M1045 15207 c-219 -58 -343 -256 -399 -636 -9 -58 -14 -107 -11 -109&#xA;2 -2 30 23 62 55 68 69 106 89 188 97 81 9 151 -10 179 -47 20 -27 21 -38 16&#xA;-185 -9 -280 -4 -883 9 -1047 46 -609 150 -1188 316 -1770 60 -210 189 -594&#xA;262 -781 51 -132 58 -157 58 -221 0 -62 -3 -75 -24 -97 -29 -31 -106 -61 -182&#xA;-70 -51 -6 -61 -4 -134 33 -44 22 -81 38 -83 36 -2 -2 19 -50 47 -107 96 -196&#xA;511 -741 653 -857 29 -24 77 -55 107 -69 102 -47 207 -17 331 95 33 30 60 59&#xA;60 64 0 6 -31 59 -69 118 -165 256 -399 696 -536 1006 -565 1279 -760 2699&#xA;-580 4219 14 115 25 219 25 231 0 18 -9 25 -46 34 -73 19 -193 22 -249 8z"></path>
<path d="M3449 10883 c-19 -25 -60 -65 -91 -88 -98 -73 -188 -81 -326 -29 -37&#xA;14 -75 28 -85 31 -38 12 177 -383 358 -657 175 -265 321 -447 505 -631 268&#xA;-268 473 -400 711 -460 154 -39 282 -13 388 77 l43 37 -99 33 c-346 113 -595&#xA;347 -886 832 -96 160 -369 670 -439 820 -22 45 -40 82 -42 82 -1 0 -18 -21&#xA;-37 -47z"></path>
<path d="M16615 16805 c-74 -16 -147 -45 -208 -81 l-46 -28 87 -18 c47 -9 115&#xA;-32 151 -50 193 -98 386 -407 491 -788 58 -209 117 -571 136 -832 3 -53 10&#xA;-101 13 -107 5 -7 40 1 106 25 140 50 184 46 295 -24 45 -29 84 -52 87 -52 13&#xA;0 -45 523 -78 715 -62 354 -149 615 -292 870 -84 150 -187 254 -307 313 -138&#xA;67 -296 88 -435 57z"></path>
<path d="M17840 16060 c-25 -4 -72 -18 -105 -32 -51 -20 -60 -27 -59 -48 0&#xA;-14 33 -158 72 -320 147 -608 178 -877 169 -1455 -6 -401 -29 -641 -102 -1105&#xA;-164 -1040 -422 -2001 -679 -2533 -191 -395 -405 -693 -823 -1148 -73 -79&#xA;-133 -149 -133 -156 0 -19 93 -109 153 -147 59 -38 147 -66 207 -66 119 0 323&#xA;102 514 259 138 112 348 371 524 646 78 123 334 564 348 598 4 10 -34 13 -183&#xA;12 -173 0 -192 2 -235 22 -29 13 -55 35 -68 55 -34 57 -27 116 41 325 220 683&#xA;373 1287 469 1857 91 540 127 926 136 1456 6 365 12 405 63 454 33 32 118 66&#xA;164 66 70 0 124 -28 187 -98 33 -37 60 -63 60 -59 0 24 -63 441 -80 528 -58&#xA;302 -177 618 -281 750 -44 56 -122 109 -190 130 -64 20 -95 22 -169 9z"></path>
<path d="M18730 15208 c-36 -5 -68 -12 -72 -16 -3 -4 -2 -32 3 -62 16 -104 48&#xA;-405 65 -620 22 -271 25 -985 6 -1225 -108 -1334 -465 -2436 -1154 -3558 -43&#xA;-70 -78 -131 -78 -136 0 -15 98 -99 154 -130 154 -89 243 -60 458 147 194 187&#xA;376 437 516 710 40 77 72 143 72 146 0 3 -31 -9 -68 -28 -92 -47 -173 -62&#xA;-232 -46 -59 16 -139 94 -141 136 -2 58 4 81 86 298 271 724 437 1385 524&#xA;2081 52 418 66 698 56 1155 -10 477 -11 450 8 487 10 18 33 45 54 60 30 23 46&#xA;28 92 27 73 -1 128 -30 212 -110 36 -35 69 -64 74 -64 4 0 5 39 1 86 -17 207&#xA;-110 441 -216 545 -113 110 -233 144 -420 117z"></path>
<path d="M16343 10572 c-190 -385 -293 -565 -429 -746 -217 -288 -443 -480&#xA;-730 -622 l-115 -56 23 -25 c12 -13 52 -38 87 -56 174 -86 441 -17 726 188&#xA;157 112 391 351 589 600 99 125 266 371 351 520 86 149 205 384 205 405 0 16&#xA;-7 15 -77 -12 -104 -41 -202 -48 -265 -20 -53 23 -114 76 -153 132 -15 22 -30&#xA;40 -34 40 -3 0 -83 -157 -178 -348z"></path>
</g>
</svg>